<svg xmlns="http://www.w3.org/2000/svg" version="1.1" xmlns:xlink="http://www.w3.org/1999/xlink"
    width="512" height="512" x="0" y="0" viewBox="0 0 450 450"
    style="enable-background:new 0 0 512 512" xml:space="preserve" class=""><g><linearGradient id="a" x1="70.196" x2="379.881" y1="363.226" y2="53.541" gradientTransform="matrix(1 0 0 -1 0 452)" gradientUnits="userSpaceOnUse"><stop offset="0" stop-color="#00dbde"></stop><stop offset="1" stop-color="#fc00ff"></stop></linearGradient><path fill="url(#a)" d="M376 372.8c-13.9 0-28.7-3.5-42.1-10-20.4-10-34.5-25.8-38.6-43.2l-5.8-24.6c-1.8-7.5-8.4-12.7-16-12.7h-96.8c-7.7 0-14.3 5.2-16.1 12.7l-5.8 24.6c-7.7 32.4-46.9 53.3-80.8 53.3-5.8 0-11.4-.6-16.7-1.8-37.1-8.8-60.2-46.1-51.4-83.2l37.2-157.3c7.5-31.9 36.7-54.2 69.3-53.2h228.7c31.5.7 58.5 22.6 65.8 53.2l37.2 157.3c4.3 18 1.3 36.5-8.5 52.3s-25 26.7-42.9 31c-5.2 1-10.8 1.6-16.7 1.6zM176.6 270.2h96.8c13.3 0 24.7 9 27.7 21.9l5.8 24.6c3.3 14 15 26.8 32.2 35.2 16.6 8.1 35.6 10.9 50.8 7.3 14.9-3.5 27.5-12.6 35.5-25.6s10.5-28.3 7-43.2l-37.2-157.3c-6-25.3-28.3-43.4-54.3-44H112.1c-27-.9-51.1 17.6-57.3 44L17.5 290.5C10.3 321.2 29.3 352 60 359.3c30.5 7.2 75.7-11.4 83-42.5l5.8-24.6c3.1-12.9 14.5-22 27.8-22zm76.9-17.7h-56.9c-3.3 0-6-2.7-6-6s2.7-6 6-6h56.9c3.3 0 6 2.7 6 6s-2.7 6-6 6zm-134.7-6c-6.7 0-12.9-2.6-17.7-7.3-4.7-4.7-7.3-11-7.3-17.7V217h-4.5c-13.8 0-25-11.2-25-25 0-6.7 2.6-12.9 7.3-17.7s11-7.3 17.7-7.3h4.5v-4.5c0-13.8 11.2-25 25-25 6.7 0 12.9 2.6 17.7 7.3 4.7 4.7 7.3 11 7.3 17.7v4.5h4.5c13.8 0 25 11.2 25 25 0 6.7-2.6 12.9-7.3 17.7-4.7 4.7-11 7.3-17.7 7.3h-4.5v4.5c-.1 13.8-11.3 25-25 25zm-29.5-67.4c-3.5 0-6.7 1.4-9.2 3.8s-3.8 5.7-3.8 9.2c0 7.1 5.8 13 13 13h10.5c3.3 0 6 2.7 6 6v10.5c0 3.5 1.4 6.7 3.8 9.2 2.4 2.4 5.7 3.8 9.2 3.8 7.2 0 13-5.8 13-13v-10.5c0-3.3 2.7-6 6-6h10.5c3.5 0 6.7-1.4 9.2-3.8 2.4-2.4 3.8-5.7 3.8-9.2 0-7.2-5.8-13-13-13h-10.5c-3.3 0-6-2.7-6-6v-10.5c0-3.5-1.4-6.7-3.8-9.2s-5.7-3.8-9.2-3.8c-7.2 0-13 5.8-13 13v10.5c0 3.3-2.7 6-6 6zM297 212.2c-11.1 0-20.1-9-20.1-20.1s9-20.1 20.1-20.1 20.1 9 20.1 20.1-9 20.1-20.1 20.1zm0-28.2c-4.5 0-8.1 3.6-8.1 8.1s3.6 8.1 8.1 8.1 8.1-3.6 8.1-8.1-3.6-8.1-8.1-8.1zm68.5 28.2c-11.1 0-20.1-9-20.1-20.1s9-20.1 20.1-20.1 20.1 9 20.1 20.1c.1 11.1-9 20.1-20.1 20.1zm0-28.2c-4.5 0-8.1 3.6-8.1 8.1s3.6 8.1 8.1 8.1 8.1-3.6 8.1-8.1-3.6-8.1-8.1-8.1zm-34.2-6c-11.1 0-20.1-9-20.1-20.1s9-20.1 20.1-20.1 20.1 9 20.1 20.1c0 11-9 20.1-20.1 20.1zm0-28.3c-4.5 0-8.1 3.6-8.1 8.1s3.6 8.1 8.1 8.1 8.1-3.6 8.1-8.1-3.7-8.1-8.1-8.1zm0 96.8c-11.1 0-20.1-9-20.1-20.1s9-20.1 20.1-20.1 20.1 9 20.1 20.1-9 20.1-20.1 20.1zm0-28.3c-4.5 0-8.1 3.6-8.1 8.1s3.6 8.1 8.1 8.1 8.1-3.6 8.1-8.1-3.7-8.1-8.1-8.1zm-68.4-90.1h-75.8c-15.3 0-27.8-12.5-27.8-27.8v-17c0-3.3 2.7-6 6-6s6 2.7 6 6v17c0 8.7 7.1 15.8 15.8 15.8h75.8c8.7 0 15.8-7.1 15.8-15.8v-17c0-3.3 2.7-6 6-6s6 2.7 6 6v17c0 15.3-12.4 27.8-27.8 27.8z" opacity="1" data-original="url(#a)" class=""></path></g></svg>